<mxfile host="Electron" agent="Mozilla/5.0 (Windows NT 10.0; Win64; x64) AppleWebKit/537.36 (KHTML, like Gecko) draw.io/24.7.5 Chrome/126.0.6478.183 Electron/31.3.0 Safari/537.36" version="24.7.5">
  <diagram name="Page-1" id="LinaZLV0kVE2hcudHS2R">
    <mxGraphModel dx="3685" dy="2115" grid="1" gridSize="10" guides="1" tooltips="1" connect="1" arrows="1" fold="1" page="1" pageScale="1" pageWidth="850" pageHeight="1100" background="#212424" math="0" shadow="0">
      <root>
        <mxCell id="0" />
        <mxCell id="1" parent="0" />
        <mxCell id="YnbHNWW8bhNUtjWmadCG-30" value="" style="edgeStyle=orthogonalEdgeStyle;rounded=0;sketch=1;hachureGap=4;jiggle=2;curveFitting=1;orthogonalLoop=1;jettySize=auto;html=1;fontFamily=Architects Daughter;fontSource=https%3A%2F%2Ffonts.googleapis.com%2Fcss%3Ffamily%3DArchitects%2BDaughter;entryX=0.709;entryY=0.01;entryDx=0;entryDy=0;entryPerimeter=0;strokeWidth=3;" edge="1" parent="1" source="hT-C9za3PErDwUh4CRJS-38" target="TZONmGZR3kwWCmB-P8gW-15">
          <mxGeometry relative="1" as="geometry" />
        </mxCell>
        <mxCell id="YnbHNWW8bhNUtjWmadCG-31" value="&lt;font style=&quot;font-size: 20px;&quot;&gt;1..&lt;/font&gt;" style="edgeLabel;html=1;align=center;verticalAlign=middle;resizable=0;points=[];sketch=1;hachureGap=4;jiggle=2;curveFitting=1;fontFamily=Architects Daughter;fontSource=https%3A%2F%2Ffonts.googleapis.com%2Fcss%3Ffamily%3DArchitects%2BDaughter;" vertex="1" connectable="0" parent="YnbHNWW8bhNUtjWmadCG-30">
          <mxGeometry x="-0.8417" y="1" relative="1" as="geometry">
            <mxPoint as="offset" />
          </mxGeometry>
        </mxCell>
        <mxCell id="YnbHNWW8bhNUtjWmadCG-32" value="&lt;font style=&quot;font-size: 20px;&quot;&gt;1&lt;/font&gt;" style="edgeLabel;html=1;align=center;verticalAlign=middle;resizable=0;points=[];sketch=1;hachureGap=4;jiggle=2;curveFitting=1;fontFamily=Architects Daughter;fontSource=https%3A%2F%2Ffonts.googleapis.com%2Fcss%3Ffamily%3DArchitects%2BDaughter;" vertex="1" connectable="0" parent="YnbHNWW8bhNUtjWmadCG-30">
          <mxGeometry x="0.7287" y="-5" relative="1" as="geometry">
            <mxPoint y="1" as="offset" />
          </mxGeometry>
        </mxCell>
        <mxCell id="hT-C9za3PErDwUh4CRJS-38" value="&lt;font style=&quot;font-size: 36px;&quot;&gt;Task&lt;/font&gt;" style="swimlane;fontStyle=1;align=center;verticalAlign=top;childLayout=stackLayout;horizontal=1;startSize=50;horizontalStack=0;resizeParent=1;resizeParentMax=0;resizeLast=0;collapsible=1;marginBottom=0;whiteSpace=wrap;html=1;hachureGap=4;strokeColor=#36393d;fontFamily=Architects Daughter;fontSource=https%3A%2F%2Ffonts.googleapis.com%2Fcss%3Ffamily%3DArchitects%2BDaughter;fillColor=#cdeb8b;labelBackgroundColor=none;sketch=1;curveFitting=1;jiggle=2;" parent="1" vertex="1">
          <mxGeometry x="-500" y="-20" width="350" height="330" as="geometry" />
        </mxCell>
        <mxCell id="hT-C9za3PErDwUh4CRJS-39" value="&lt;font style=&quot;font-size: 18px;&quot;&gt;- _id: object_id&lt;/font&gt;&lt;div&gt;&lt;font style=&quot;font-size: 18px;&quot;&gt;- name: string&lt;/font&gt;&lt;/div&gt;&lt;div&gt;&lt;font style=&quot;font-size: 18px;&quot;&gt;- description: string&lt;/font&gt;&lt;/div&gt;&lt;div&gt;&lt;font style=&quot;font-size: 18px;&quot;&gt;- priority: number&lt;/font&gt;&lt;/div&gt;&lt;div&gt;&lt;font style=&quot;font-size: 18px;&quot;&gt;- date_created: date&lt;/font&gt;&lt;/div&gt;&lt;div&gt;&lt;font style=&quot;font-size: 18px;&quot;&gt;- expected_date_of_completion: date&lt;/font&gt;&lt;/div&gt;&lt;div&gt;&lt;font style=&quot;font-size: 18px;&quot;&gt;- category: string&lt;/font&gt;&lt;/div&gt;&lt;div&gt;&lt;font style=&quot;font-size: 18px;&quot;&gt;- duration: numer&lt;/font&gt;&lt;/div&gt;&lt;div&gt;&lt;font style=&quot;font-size: 18px;&quot;&gt;- completed: boolean&lt;/font&gt;&lt;/div&gt;" style="text;align=left;verticalAlign=top;spacingLeft=4;spacingRight=4;overflow=hidden;rotatable=0;points=[[0,0.5],[1,0.5]];portConstraint=eastwest;whiteSpace=wrap;html=1;fontFamily=Architects Daughter;fontSource=https%3A%2F%2Ffonts.googleapis.com%2Fcss%3Ffamily%3DArchitects%2BDaughter;labelBackgroundColor=none;shadow=0;rounded=0;sketch=1;curveFitting=1;jiggle=2;fillColor=#647687;strokeColor=#314354;fontColor=#ffffff;" parent="hT-C9za3PErDwUh4CRJS-38" vertex="1">
          <mxGeometry y="50" width="350" height="200" as="geometry" />
        </mxCell>
        <mxCell id="hT-C9za3PErDwUh4CRJS-40" value="" style="line;strokeWidth=1;fillColor=none;align=left;verticalAlign=middle;spacingTop=-1;spacingLeft=3;spacingRight=3;rotatable=0;labelPosition=right;points=[];portConstraint=eastwest;strokeColor=#BAC8D3;hachureGap=4;fontFamily=Architects Daughter;fontSource=https%3A%2F%2Ffonts.googleapis.com%2Fcss%3Ffamily%3DArchitects%2BDaughter;fontColor=#EEEEEE;labelBackgroundColor=none;sketch=1;curveFitting=1;jiggle=2;" parent="hT-C9za3PErDwUh4CRJS-38" vertex="1">
          <mxGeometry y="250" width="350" height="8" as="geometry" />
        </mxCell>
        <mxCell id="hT-C9za3PErDwUh4CRJS-41" value="&lt;div&gt;&lt;font style=&quot;font-size: 18px;&quot;&gt;+ validate_values()&lt;/font&gt;&lt;/div&gt;&lt;div&gt;&lt;font style=&quot;font-size: 18px;&quot;&gt;+ verify_date(item_date): date&lt;/font&gt;&lt;/div&gt;&lt;font style=&quot;font-size: 18px;&quot;&gt;+ save()&lt;/font&gt;" style="text;align=left;verticalAlign=top;spacingLeft=4;spacingRight=4;overflow=hidden;rotatable=0;points=[[0,0.5],[1,0.5]];portConstraint=eastwest;whiteSpace=wrap;html=1;fontFamily=Architects Daughter;fontSource=https%3A%2F%2Ffonts.googleapis.com%2Fcss%3Ffamily%3DArchitects%2BDaughter;labelBackgroundColor=none;sketch=1;curveFitting=1;jiggle=2;fillColor=#e51400;strokeColor=#B20000;fontColor=#ffffff;" parent="hT-C9za3PErDwUh4CRJS-38" vertex="1">
          <mxGeometry y="258" width="350" height="72" as="geometry" />
        </mxCell>
        <mxCell id="hT-C9za3PErDwUh4CRJS-58" value="&lt;font style=&quot;font-size: 36px;&quot;&gt;PROFILE&lt;/font&gt;" style="swimlane;fontStyle=1;align=center;verticalAlign=top;childLayout=stackLayout;horizontal=1;startSize=50;horizontalStack=0;resizeParent=1;resizeParentMax=0;resizeLast=0;collapsible=1;marginBottom=0;whiteSpace=wrap;html=1;sketch=1;hachureGap=4;jiggle=2;curveFitting=1;strokeColor=#005700;fontFamily=Architects Daughter;fontSource=https%3A%2F%2Ffonts.googleapis.com%2Fcss%3Ffamily%3DArchitects%2BDaughter;fillColor=#008a00;labelBackgroundColor=none;fontColor=#ffffff;" parent="1" vertex="1">
          <mxGeometry x="-960" y="398" width="210" height="138" as="geometry" />
        </mxCell>
        <mxCell id="hT-C9za3PErDwUh4CRJS-59" value="&lt;font style=&quot;font-size: 18px;&quot;&gt;- _id: oject_id&lt;/font&gt;&lt;div&gt;&lt;font style=&quot;font-size: 18px;&quot;&gt;- image: string&lt;/font&gt;&lt;/div&gt;&lt;div&gt;&lt;font style=&quot;font-size: 18px;&quot;&gt;- theme: boolean&lt;/font&gt;&lt;/div&gt;" style="text;strokeColor=#6D1F00;fillColor=#a0522d;align=left;verticalAlign=top;spacingLeft=4;spacingRight=4;overflow=hidden;rotatable=0;points=[[0,0.5],[1,0.5]];portConstraint=eastwest;whiteSpace=wrap;html=1;fontFamily=Architects Daughter;fontSource=https%3A%2F%2Ffonts.googleapis.com%2Fcss%3Ffamily%3DArchitects%2BDaughter;sketch=1;curveFitting=1;jiggle=2;labelBackgroundColor=none;fontColor=#ffffff;" parent="hT-C9za3PErDwUh4CRJS-58" vertex="1">
          <mxGeometry y="50" width="210" height="80" as="geometry" />
        </mxCell>
        <mxCell id="hT-C9za3PErDwUh4CRJS-60" value="" style="line;strokeWidth=1;fillColor=none;align=left;verticalAlign=middle;spacingTop=-1;spacingLeft=3;spacingRight=3;rotatable=0;labelPosition=right;points=[];portConstraint=eastwest;strokeColor=#BAC8D3;sketch=1;hachureGap=4;jiggle=2;curveFitting=1;fontFamily=Architects Daughter;fontSource=https%3A%2F%2Ffonts.googleapis.com%2Fcss%3Ffamily%3DArchitects%2BDaughter;fontColor=#EEEEEE;labelBackgroundColor=none;" parent="hT-C9za3PErDwUh4CRJS-58" vertex="1">
          <mxGeometry y="130" width="210" height="8" as="geometry" />
        </mxCell>
        <mxCell id="YnbHNWW8bhNUtjWmadCG-36" value="" style="rounded=0;sketch=1;hachureGap=4;jiggle=2;curveFitting=1;orthogonalLoop=1;jettySize=auto;html=1;fontFamily=Architects Daughter;fontSource=https%3A%2F%2Ffonts.googleapis.com%2Fcss%3Ffamily%3DArchitects%2BDaughter;entryX=0.616;entryY=0.015;entryDx=0;entryDy=0;entryPerimeter=0;exitX=0.664;exitY=1.188;exitDx=0;exitDy=0;strokeWidth=3;exitPerimeter=0;" edge="1" parent="1" source="YnbHNWW8bhNUtjWmadCG-72" target="TZONmGZR3kwWCmB-P8gW-15">
          <mxGeometry relative="1" as="geometry">
            <mxPoint x="-670" y="260" as="sourcePoint" />
            <mxPoint x="-540" y="820" as="targetPoint" />
          </mxGeometry>
        </mxCell>
        <mxCell id="YnbHNWW8bhNUtjWmadCG-37" value="&lt;font style=&quot;font-size: 20px;&quot;&gt;1..&lt;/font&gt;" style="edgeLabel;html=1;align=center;verticalAlign=middle;resizable=0;points=[];sketch=1;hachureGap=4;jiggle=2;curveFitting=1;fontFamily=Architects Daughter;fontSource=https%3A%2F%2Ffonts.googleapis.com%2Fcss%3Ffamily%3DArchitects%2BDaughter;" vertex="1" connectable="0" parent="YnbHNWW8bhNUtjWmadCG-36">
          <mxGeometry x="-0.8705" y="-5" relative="1" as="geometry">
            <mxPoint as="offset" />
          </mxGeometry>
        </mxCell>
        <mxCell id="YnbHNWW8bhNUtjWmadCG-38" value="&lt;font style=&quot;font-size: 20px;&quot;&gt;1&lt;/font&gt;" style="edgeLabel;html=1;align=center;verticalAlign=middle;resizable=0;points=[];sketch=1;hachureGap=4;jiggle=2;curveFitting=1;fontFamily=Architects Daughter;fontSource=https%3A%2F%2Ffonts.googleapis.com%2Fcss%3Ffamily%3DArchitects%2BDaughter;" vertex="1" connectable="0" parent="YnbHNWW8bhNUtjWmadCG-36">
          <mxGeometry x="0.8428" relative="1" as="geometry">
            <mxPoint as="offset" />
          </mxGeometry>
        </mxCell>
        <mxCell id="YnbHNWW8bhNUtjWmadCG-57" value="" style="edgeStyle=orthogonalEdgeStyle;rounded=0;sketch=1;hachureGap=4;jiggle=2;curveFitting=1;orthogonalLoop=1;jettySize=auto;html=1;fontFamily=Architects Daughter;fontSource=https%3A%2F%2Ffonts.googleapis.com%2Fcss%3Ffamily%3DArchitects%2BDaughter;strokeWidth=3;exitX=1.008;exitY=0.778;exitDx=0;exitDy=0;exitPerimeter=0;" edge="1" parent="1" source="YnbHNWW8bhNUtjWmadCG-70" target="hT-C9za3PErDwUh4CRJS-39">
          <mxGeometry relative="1" as="geometry">
            <mxPoint x="-590" y="165" as="sourcePoint" />
          </mxGeometry>
        </mxCell>
        <mxCell id="YnbHNWW8bhNUtjWmadCG-58" value="&lt;font style=&quot;font-size: 20px;&quot;&gt;1&lt;/font&gt;" style="edgeLabel;html=1;align=center;verticalAlign=middle;resizable=0;points=[];sketch=1;hachureGap=4;jiggle=2;curveFitting=1;fontFamily=Architects Daughter;fontSource=https%3A%2F%2Ffonts.googleapis.com%2Fcss%3Ffamily%3DArchitects%2BDaughter;" vertex="1" connectable="0" parent="YnbHNWW8bhNUtjWmadCG-57">
          <mxGeometry x="-0.68" y="-2" relative="1" as="geometry">
            <mxPoint as="offset" />
          </mxGeometry>
        </mxCell>
        <mxCell id="YnbHNWW8bhNUtjWmadCG-59" value="&lt;font style=&quot;font-size: 20px;&quot;&gt;1&lt;/font&gt;" style="edgeLabel;html=1;align=center;verticalAlign=middle;resizable=0;points=[];sketch=1;hachureGap=4;jiggle=2;curveFitting=1;fontFamily=Architects Daughter;fontSource=https%3A%2F%2Ffonts.googleapis.com%2Fcss%3Ffamily%3DArchitects%2BDaughter;" vertex="1" connectable="0" parent="YnbHNWW8bhNUtjWmadCG-57">
          <mxGeometry x="0.52" y="-3" relative="1" as="geometry">
            <mxPoint as="offset" />
          </mxGeometry>
        </mxCell>
        <mxCell id="hT-C9za3PErDwUh4CRJS-95" value="" style="edgeStyle=orthogonalEdgeStyle;rounded=0;sketch=1;hachureGap=4;jiggle=2;curveFitting=1;orthogonalLoop=1;jettySize=auto;html=1;strokeColor=#0B4D6A;fontFamily=Architects Daughter;fontSource=https%3A%2F%2Ffonts.googleapis.com%2Fcss%3Ffamily%3DArchitects%2BDaughter;labelBackgroundColor=none;fontColor=default;" parent="1" edge="1">
          <mxGeometry relative="1" as="geometry">
            <mxPoint x="-50" y="340" as="sourcePoint" />
          </mxGeometry>
        </mxCell>
        <mxCell id="hT-C9za3PErDwUh4CRJS-97" value="" style="edgeStyle=orthogonalEdgeStyle;rounded=0;sketch=1;hachureGap=4;jiggle=2;curveFitting=1;orthogonalLoop=1;jettySize=auto;html=1;strokeColor=#0B4D6A;fontFamily=Architects Daughter;fontSource=https%3A%2F%2Ffonts.googleapis.com%2Fcss%3Ffamily%3DArchitects%2BDaughter;labelBackgroundColor=none;fontColor=default;" parent="1" edge="1">
          <mxGeometry relative="1" as="geometry">
            <mxPoint x="30" y="465" as="sourcePoint" />
          </mxGeometry>
        </mxCell>
        <mxCell id="hT-C9za3PErDwUh4CRJS-100" value="" style="edgeStyle=orthogonalEdgeStyle;rounded=0;sketch=1;hachureGap=4;jiggle=2;curveFitting=1;orthogonalLoop=1;jettySize=auto;html=1;strokeColor=#0B4D6A;fontFamily=Architects Daughter;fontSource=https%3A%2F%2Ffonts.googleapis.com%2Fcss%3Ffamily%3DArchitects%2BDaughter;labelBackgroundColor=none;fontColor=default;" parent="1" edge="1">
          <mxGeometry relative="1" as="geometry">
            <mxPoint x="80.06666666666706" y="190" as="sourcePoint" />
          </mxGeometry>
        </mxCell>
        <mxCell id="hT-C9za3PErDwUh4CRJS-102" value="" style="edgeStyle=orthogonalEdgeStyle;rounded=0;sketch=1;hachureGap=4;jiggle=2;curveFitting=1;orthogonalLoop=1;jettySize=auto;html=1;strokeColor=#0B4D6A;fontFamily=Architects Daughter;fontSource=https%3A%2F%2Ffonts.googleapis.com%2Fcss%3Ffamily%3DArchitects%2BDaughter;labelBackgroundColor=none;fontColor=default;" parent="1" edge="1">
          <mxGeometry relative="1" as="geometry">
            <mxPoint x="160" y="520" as="sourcePoint" />
          </mxGeometry>
        </mxCell>
        <mxCell id="YnbHNWW8bhNUtjWmadCG-50" value="" style="edgeStyle=orthogonalEdgeStyle;rounded=0;sketch=1;hachureGap=4;jiggle=2;curveFitting=1;orthogonalLoop=1;jettySize=auto;html=1;fontFamily=Architects Daughter;fontSource=https%3A%2F%2Ffonts.googleapis.com%2Fcss%3Ffamily%3DArchitects%2BDaughter;strokeWidth=3;" edge="1" parent="1" source="hT-C9za3PErDwUh4CRJS-104" target="hT-C9za3PErDwUh4CRJS-41">
          <mxGeometry relative="1" as="geometry" />
        </mxCell>
        <mxCell id="YnbHNWW8bhNUtjWmadCG-51" value="&lt;font style=&quot;font-size: 20px;&quot;&gt;1...&lt;/font&gt;" style="edgeLabel;html=1;align=center;verticalAlign=middle;resizable=0;points=[];sketch=1;hachureGap=4;jiggle=2;curveFitting=1;fontFamily=Architects Daughter;fontSource=https%3A%2F%2Ffonts.googleapis.com%2Fcss%3Ffamily%3DArchitects%2BDaughter;" vertex="1" connectable="0" parent="YnbHNWW8bhNUtjWmadCG-50">
          <mxGeometry x="0.8366" y="-1" relative="1" as="geometry">
            <mxPoint x="1" as="offset" />
          </mxGeometry>
        </mxCell>
        <mxCell id="YnbHNWW8bhNUtjWmadCG-53" value="&lt;span style=&quot;font-size: 20px;&quot;&gt;1&lt;/span&gt;" style="edgeLabel;html=1;align=center;verticalAlign=middle;resizable=0;points=[];sketch=1;hachureGap=4;jiggle=2;curveFitting=1;fontFamily=Architects Daughter;fontSource=https%3A%2F%2Ffonts.googleapis.com%2Fcss%3Ffamily%3DArchitects%2BDaughter;" vertex="1" connectable="0" parent="YnbHNWW8bhNUtjWmadCG-50">
          <mxGeometry x="-0.7687" y="2" relative="1" as="geometry">
            <mxPoint x="1" as="offset" />
          </mxGeometry>
        </mxCell>
        <mxCell id="hT-C9za3PErDwUh4CRJS-104" value="&lt;font style=&quot;font-size: 36px;&quot;&gt;DAILY TASK COUNT&lt;/font&gt;" style="swimlane;fontStyle=1;align=center;verticalAlign=top;childLayout=stackLayout;horizontal=1;startSize=100;horizontalStack=0;resizeParent=1;resizeParentMax=0;resizeLast=0;collapsible=1;marginBottom=0;whiteSpace=wrap;html=1;sketch=1;hachureGap=4;jiggle=2;curveFitting=1;strokeColor=#B20000;fontFamily=Architects Daughter;fontSource=https%3A%2F%2Ffonts.googleapis.com%2Fcss%3Ffamily%3DArchitects%2BDaughter;fontColor=#ffffff;fillColor=#e51400;labelBackgroundColor=none;" parent="1" vertex="1">
          <mxGeometry x="30" y="150" width="270" height="320" as="geometry" />
        </mxCell>
        <mxCell id="hT-C9za3PErDwUh4CRJS-106" value="" style="line;strokeWidth=1;fillColor=none;align=left;verticalAlign=middle;spacingTop=-1;spacingLeft=3;spacingRight=3;rotatable=0;labelPosition=right;points=[];portConstraint=eastwest;strokeColor=#BAC8D3;sketch=1;hachureGap=4;jiggle=2;curveFitting=1;fontFamily=Architects Daughter;fontSource=https%3A%2F%2Ffonts.googleapis.com%2Fcss%3Ffamily%3DArchitects%2BDaughter;fontColor=#EEEEEE;labelBackgroundColor=none;" parent="hT-C9za3PErDwUh4CRJS-104" vertex="1">
          <mxGeometry y="100" width="270" height="8" as="geometry" />
        </mxCell>
        <mxCell id="hT-C9za3PErDwUh4CRJS-105" value="&lt;font style=&quot;font-size: 18px;&quot;&gt;- _id: object_id&lt;/font&gt;&lt;div&gt;&lt;font style=&quot;font-size: 18px;&quot;&gt;- amount: number&lt;/font&gt;&lt;/div&gt;&lt;div&gt;&lt;font style=&quot;font-size: 18px;&quot;&gt;- day: number&lt;/font&gt;&lt;/div&gt;&lt;div&gt;&lt;font style=&quot;font-size: 18px;&quot;&gt;- date: date&lt;/font&gt;&lt;/div&gt;&lt;div&gt;&lt;font style=&quot;font-size: 18px;&quot;&gt;- hours: number&lt;/font&gt;&lt;/div&gt;" style="text;strokeColor=#36393d;fillColor=#f9f7ed;align=left;verticalAlign=top;spacingLeft=4;spacingRight=4;overflow=hidden;rotatable=0;points=[[0,0.5],[1,0.5]];portConstraint=eastwest;whiteSpace=wrap;html=1;fontFamily=Architects Daughter;fontSource=https%3A%2F%2Ffonts.googleapis.com%2Fcss%3Ffamily%3DArchitects%2BDaughter;sketch=1;curveFitting=1;jiggle=2;labelBackgroundColor=none;" parent="hT-C9za3PErDwUh4CRJS-104" vertex="1">
          <mxGeometry y="108" width="270" height="112" as="geometry" />
        </mxCell>
        <mxCell id="YnbHNWW8bhNUtjWmadCG-2" value="&lt;div&gt;&lt;span style=&quot;font-size: 18px;&quot;&gt;+ update_amount(): number&lt;/span&gt;&lt;/div&gt;&lt;div&gt;&lt;span style=&quot;font-size: 18px;&quot;&gt;+ calculate_hours()&lt;/span&gt;&lt;/div&gt;&lt;div&gt;&lt;span style=&quot;font-size: 18px;&quot;&gt;+ save()&lt;/span&gt;&lt;span style=&quot;font-size: 18px;&quot;&gt;&lt;br&gt;&lt;/span&gt;&lt;/div&gt;&lt;div&gt;&lt;span style=&quot;font-size: 18px;&quot;&gt;+ filter_completed(task): obj&lt;/span&gt;&lt;/div&gt;&lt;div&gt;&lt;br&gt;&lt;/div&gt;" style="text;strokeColor=#3A5431;fillColor=#6d8764;align=left;verticalAlign=top;spacingLeft=4;spacingRight=4;overflow=hidden;rotatable=0;points=[[0,0.5],[1,0.5]];portConstraint=eastwest;whiteSpace=wrap;html=1;fontFamily=Architects Daughter;fontSource=https%3A%2F%2Ffonts.googleapis.com%2Fcss%3Ffamily%3DArchitects%2BDaughter;sketch=1;curveFitting=1;jiggle=2;labelBackgroundColor=none;fontColor=#ffffff;" vertex="1" parent="hT-C9za3PErDwUh4CRJS-104">
          <mxGeometry y="220" width="270" height="100" as="geometry" />
        </mxCell>
        <mxCell id="hT-C9za3PErDwUh4CRJS-129" value="&lt;font style=&quot;font-size: 36px;&quot;&gt;WEEKLY TASK COUNT&lt;/font&gt;" style="swimlane;fontStyle=1;align=center;verticalAlign=top;childLayout=stackLayout;horizontal=1;startSize=50;horizontalStack=0;resizeParent=1;resizeParentMax=0;resizeLast=0;collapsible=1;marginBottom=0;whiteSpace=wrap;html=1;sketch=1;hachureGap=4;jiggle=2;curveFitting=1;strokeColor=#B20000;fontFamily=Architects Daughter;fontSource=https%3A%2F%2Ffonts.googleapis.com%2Fcss%3Ffamily%3DArchitects%2BDaughter;fontColor=#ffffff;fillColor=#e51400;labelBackgroundColor=none;" parent="1" vertex="1">
          <mxGeometry x="-410" y="-510" width="410" height="268" as="geometry" />
        </mxCell>
        <mxCell id="hT-C9za3PErDwUh4CRJS-130" value="&lt;font style=&quot;font-size: 18px;&quot;&gt;- _id: object_id&lt;/font&gt;&lt;div&gt;&lt;font style=&quot;font-size: 18px;&quot;&gt;- amount: number&lt;/font&gt;&lt;/div&gt;&lt;div&gt;&lt;font style=&quot;font-size: 18px;&quot;&gt;- week: number&lt;/font&gt;&lt;/div&gt;&lt;div&gt;&lt;font style=&quot;font-size: 18px;&quot;&gt;- hours: number&lt;/font&gt;&lt;/div&gt;&lt;div&gt;&lt;font style=&quot;font-size: 18px;&quot;&gt;- date: date&lt;/font&gt;&lt;/div&gt;" style="text;strokeColor=#36393d;fillColor=#f9f7ed;align=left;verticalAlign=top;spacingLeft=4;spacingRight=4;overflow=hidden;rotatable=0;points=[[0,0.5],[1,0.5]];portConstraint=eastwest;whiteSpace=wrap;html=1;fontFamily=Architects Daughter;fontSource=https%3A%2F%2Ffonts.googleapis.com%2Fcss%3Ffamily%3DArchitects%2BDaughter;sketch=1;curveFitting=1;jiggle=2;labelBackgroundColor=none;" parent="hT-C9za3PErDwUh4CRJS-129" vertex="1">
          <mxGeometry y="50" width="410" height="120" as="geometry" />
        </mxCell>
        <mxCell id="YnbHNWW8bhNUtjWmadCG-60" value="&lt;span style=&quot;font-size: 18px;&quot;&gt;+ determineTask_week(dailytaskcount): number&lt;/span&gt;&lt;div&gt;&lt;span style=&quot;font-size: 18px;&quot;&gt;+ calculate_total_hours&lt;/span&gt;&lt;span style=&quot;font-size: 18px;&quot;&gt;(dailytaskdata): number&lt;/span&gt;&lt;/div&gt;&lt;div&gt;&lt;span style=&quot;font-size: 18px;&quot;&gt;+ update_amount(): number&lt;br&gt;&lt;/span&gt;&lt;div&gt;&lt;span style=&quot;font-size: 18px;&quot;&gt;+ save()&lt;/span&gt;&lt;/div&gt;&lt;/div&gt;" style="text;strokeColor=#3A5431;fillColor=#6d8764;align=left;verticalAlign=top;spacingLeft=4;spacingRight=4;overflow=hidden;rotatable=0;points=[[0,0.5],[1,0.5]];portConstraint=eastwest;whiteSpace=wrap;html=1;fontFamily=Architects Daughter;fontSource=https%3A%2F%2Ffonts.googleapis.com%2Fcss%3Ffamily%3DArchitects%2BDaughter;sketch=1;curveFitting=1;jiggle=2;labelBackgroundColor=none;fontColor=#ffffff;" vertex="1" parent="hT-C9za3PErDwUh4CRJS-129">
          <mxGeometry y="170" width="410" height="90" as="geometry" />
        </mxCell>
        <mxCell id="hT-C9za3PErDwUh4CRJS-131" value="" style="line;strokeWidth=1;fillColor=none;align=left;verticalAlign=middle;spacingTop=-1;spacingLeft=3;spacingRight=3;rotatable=0;labelPosition=right;points=[];portConstraint=eastwest;strokeColor=#BAC8D3;sketch=1;hachureGap=4;jiggle=2;curveFitting=1;fontFamily=Architects Daughter;fontSource=https%3A%2F%2Ffonts.googleapis.com%2Fcss%3Ffamily%3DArchitects%2BDaughter;fontColor=#EEEEEE;labelBackgroundColor=none;" parent="hT-C9za3PErDwUh4CRJS-129" vertex="1">
          <mxGeometry y="260" width="410" height="8" as="geometry" />
        </mxCell>
        <mxCell id="hT-C9za3PErDwUh4CRJS-136" value="&lt;font style=&quot;font-size: 36px;&quot;&gt;MONTHLY TASK COUNT&lt;/font&gt;" style="swimlane;fontStyle=1;align=center;verticalAlign=top;childLayout=stackLayout;horizontal=1;startSize=50;horizontalStack=0;resizeParent=1;resizeParentMax=0;resizeLast=0;collapsible=1;marginBottom=0;whiteSpace=wrap;html=1;sketch=1;hachureGap=4;jiggle=2;curveFitting=1;strokeColor=#B20000;fontFamily=Architects Daughter;fontSource=https%3A%2F%2Ffonts.googleapis.com%2Fcss%3Ffamily%3DArchitects%2BDaughter;fontColor=#ffffff;fillColor=#e51400;labelBackgroundColor=none;" parent="1" vertex="1">
          <mxGeometry x="410" y="-450" width="410" height="268" as="geometry" />
        </mxCell>
        <mxCell id="hT-C9za3PErDwUh4CRJS-137" value="&lt;font style=&quot;font-size: 18px;&quot;&gt;- _id: object_id&lt;/font&gt;&lt;div style=&quot;font-size: 18px;&quot;&gt;&lt;font style=&quot;font-size: 18px;&quot;&gt;- amount: number&lt;/font&gt;&lt;/div&gt;&lt;div&gt;&lt;span style=&quot;font-size: 18px;&quot;&gt;- month: numer&lt;/span&gt;&lt;/div&gt;&lt;div&gt;&lt;span style=&quot;font-size: 18px;&quot;&gt;- hours: number&lt;/span&gt;&lt;/div&gt;&lt;div&gt;&lt;span style=&quot;font-size: 18px;&quot;&gt;- date: date&lt;/span&gt;&lt;/div&gt;" style="text;strokeColor=#36393d;fillColor=#f9f7ed;align=left;verticalAlign=top;spacingLeft=4;spacingRight=4;overflow=hidden;rotatable=0;points=[[0,0.5],[1,0.5]];portConstraint=eastwest;whiteSpace=wrap;html=1;fontFamily=Architects Daughter;fontSource=https%3A%2F%2Ffonts.googleapis.com%2Fcss%3Ffamily%3DArchitects%2BDaughter;sketch=1;curveFitting=1;jiggle=2;labelBackgroundColor=none;" parent="hT-C9za3PErDwUh4CRJS-136" vertex="1">
          <mxGeometry y="50" width="410" height="110" as="geometry" />
        </mxCell>
        <mxCell id="YnbHNWW8bhNUtjWmadCG-61" value="&lt;div&gt;&lt;span style=&quot;font-size: 18px; background-color: initial;&quot;&gt;+ determineTask_month(dailytaskcount): obj&lt;/span&gt;&lt;br&gt;&lt;/div&gt;&lt;div&gt;&lt;span style=&quot;font-size: 18px;&quot;&gt;+&amp;nbsp;&lt;/span&gt;&lt;span style=&quot;font-size: 18px;&quot;&gt;calculate_total_hours(dailytaskdata): number&lt;/span&gt;&lt;span style=&quot;font-size: 18px;&quot;&gt;&lt;br&gt;&lt;/span&gt;&lt;div&gt;&lt;font style=&quot;font-size: 18px;&quot;&gt;+ update_amount(): number&lt;/font&gt;&lt;/div&gt;&lt;div&gt;&lt;font style=&quot;font-size: 18px;&quot;&gt;+ save()&lt;/font&gt;&lt;/div&gt;&lt;/div&gt;" style="text;strokeColor=#3A5431;fillColor=#6d8764;align=left;verticalAlign=top;spacingLeft=4;spacingRight=4;overflow=hidden;rotatable=0;points=[[0,0.5],[1,0.5]];portConstraint=eastwest;whiteSpace=wrap;html=1;fontFamily=Architects Daughter;fontSource=https%3A%2F%2Ffonts.googleapis.com%2Fcss%3Ffamily%3DArchitects%2BDaughter;sketch=1;curveFitting=1;jiggle=2;labelBackgroundColor=none;fontColor=#ffffff;" vertex="1" parent="hT-C9za3PErDwUh4CRJS-136">
          <mxGeometry y="160" width="410" height="100" as="geometry" />
        </mxCell>
        <mxCell id="hT-C9za3PErDwUh4CRJS-138" value="" style="line;strokeWidth=1;fillColor=none;align=left;verticalAlign=middle;spacingTop=-1;spacingLeft=3;spacingRight=3;rotatable=0;labelPosition=right;points=[];portConstraint=eastwest;strokeColor=#BAC8D3;sketch=1;hachureGap=4;jiggle=2;curveFitting=1;fontFamily=Architects Daughter;fontSource=https%3A%2F%2Ffonts.googleapis.com%2Fcss%3Ffamily%3DArchitects%2BDaughter;fontColor=#EEEEEE;labelBackgroundColor=none;" parent="hT-C9za3PErDwUh4CRJS-136" vertex="1">
          <mxGeometry y="260" width="410" height="8" as="geometry" />
        </mxCell>
        <mxCell id="TZONmGZR3kwWCmB-P8gW-8" value="&lt;font style=&quot;font-size: 36px;&quot;&gt;YEARLY TASK COUNT&lt;/font&gt;" style="swimlane;fontStyle=1;align=center;verticalAlign=top;childLayout=stackLayout;horizontal=1;startSize=50;horizontalStack=0;resizeParent=1;resizeParentMax=0;resizeLast=0;collapsible=1;marginBottom=0;whiteSpace=wrap;html=1;sketch=1;hachureGap=4;jiggle=2;curveFitting=1;strokeColor=#B20000;fontFamily=Architects Daughter;fontSource=https%3A%2F%2Ffonts.googleapis.com%2Fcss%3Ffamily%3DArchitects%2BDaughter;fontColor=#ffffff;fillColor=#e51400;labelBackgroundColor=none;" parent="1" vertex="1">
          <mxGeometry x="1210" y="-420" width="440" height="270" as="geometry" />
        </mxCell>
        <mxCell id="TZONmGZR3kwWCmB-P8gW-10" value="" style="line;strokeWidth=1;fillColor=none;align=left;verticalAlign=middle;spacingTop=-1;spacingLeft=3;spacingRight=3;rotatable=0;labelPosition=right;points=[];portConstraint=eastwest;strokeColor=#BAC8D3;sketch=1;hachureGap=4;jiggle=2;curveFitting=1;fontFamily=Architects Daughter;fontSource=https%3A%2F%2Ffonts.googleapis.com%2Fcss%3Ffamily%3DArchitects%2BDaughter;fontColor=#EEEEEE;labelBackgroundColor=none;" parent="TZONmGZR3kwWCmB-P8gW-8" vertex="1">
          <mxGeometry y="50" width="440" height="8" as="geometry" />
        </mxCell>
        <mxCell id="TZONmGZR3kwWCmB-P8gW-9" value="&lt;font style=&quot;font-size: 18px;&quot;&gt;- _id: object_id&lt;/font&gt;&lt;div style=&quot;font-size: 18px;&quot;&gt;&lt;font style=&quot;font-size: 18px;&quot;&gt;- amount: number&lt;/font&gt;&lt;/div&gt;&lt;div&gt;&lt;span style=&quot;font-size: 18px;&quot;&gt;- year: number&lt;/span&gt;&lt;/div&gt;&lt;div&gt;&lt;span style=&quot;font-size: 18px;&quot;&gt;- hours: number&lt;/span&gt;&lt;/div&gt;&lt;div&gt;&lt;span style=&quot;font-size: 18px;&quot;&gt;- date: date&lt;/span&gt;&lt;/div&gt;" style="text;strokeColor=#36393d;fillColor=#f9f7ed;align=left;verticalAlign=top;spacingLeft=4;spacingRight=4;overflow=hidden;rotatable=0;points=[[0,0.5],[1,0.5]];portConstraint=eastwest;whiteSpace=wrap;html=1;fontFamily=Architects Daughter;fontSource=https%3A%2F%2Ffonts.googleapis.com%2Fcss%3Ffamily%3DArchitects%2BDaughter;sketch=1;curveFitting=1;jiggle=2;labelBackgroundColor=none;" parent="TZONmGZR3kwWCmB-P8gW-8" vertex="1">
          <mxGeometry y="58" width="440" height="112" as="geometry" />
        </mxCell>
        <mxCell id="YnbHNWW8bhNUtjWmadCG-65" value="&lt;div&gt;&lt;span style=&quot;font-size: 18px; background-color: initial;&quot;&gt;+ determineTask_year(dailytaskcount): obj&lt;/span&gt;&lt;br&gt;&lt;/div&gt;&lt;div&gt;&lt;span style=&quot;font-size: 18px;&quot;&gt;+&amp;nbsp;&lt;/span&gt;&lt;span style=&quot;font-size: 18px;&quot;&gt;calculate_total_hours(monthlytaskdata): number&lt;/span&gt;&lt;/div&gt;&lt;div&gt;&lt;span style=&quot;font-size: 18px;&quot;&gt;+ update_amount(): number&lt;br&gt;&lt;/span&gt;&lt;div&gt;&lt;font style=&quot;font-size: 18px;&quot;&gt;+ save()&lt;/font&gt;&lt;/div&gt;&lt;/div&gt;" style="text;strokeColor=#3A5431;fillColor=#6d8764;align=left;verticalAlign=top;spacingLeft=4;spacingRight=4;overflow=hidden;rotatable=0;points=[[0,0.5],[1,0.5]];portConstraint=eastwest;whiteSpace=wrap;html=1;fontFamily=Architects Daughter;fontSource=https%3A%2F%2Ffonts.googleapis.com%2Fcss%3Ffamily%3DArchitects%2BDaughter;sketch=1;curveFitting=1;jiggle=2;labelBackgroundColor=none;fontColor=#ffffff;" vertex="1" parent="TZONmGZR3kwWCmB-P8gW-8">
          <mxGeometry y="170" width="440" height="100" as="geometry" />
        </mxCell>
        <mxCell id="TZONmGZR3kwWCmB-P8gW-15" value="&lt;font style=&quot;font-size: 36px;&quot;&gt;USER&lt;/font&gt;" style="swimlane;fontStyle=1;align=center;verticalAlign=top;childLayout=stackLayout;horizontal=1;startSize=60;horizontalStack=0;resizeParent=1;resizeParentMax=0;resizeLast=0;collapsible=1;marginBottom=0;whiteSpace=wrap;html=1;sketch=1;hachureGap=4;jiggle=2;curveFitting=1;fontFamily=Architects Daughter;fontSource=https%3A%2F%2Ffonts.googleapis.com%2Fcss%3Ffamily%3DArchitects%2BDaughter;fillColor=#008a00;strokeColor=#005700;fontColor=#ffffff;" parent="1" vertex="1">
          <mxGeometry x="-630" y="780" width="250" height="270" as="geometry" />
        </mxCell>
        <mxCell id="TZONmGZR3kwWCmB-P8gW-16" value="&lt;font style=&quot;font-size: 18px;&quot;&gt;- _id: object_id&lt;/font&gt;&lt;div style=&quot;font-size: 18px;&quot;&gt;&lt;font style=&quot;font-size: 18px;&quot;&gt;- username: string&lt;/font&gt;&lt;/div&gt;&lt;div style=&quot;font-size: 18px;&quot;&gt;&lt;font style=&quot;font-size: 18px;&quot;&gt;- passwod: string&lt;/font&gt;&lt;/div&gt;&lt;div style=&quot;font-size: 18px;&quot;&gt;&lt;font style=&quot;font-size: 18px;&quot;&gt;- created: date&lt;/font&gt;&lt;/div&gt;&lt;div style=&quot;font-size: 18px;&quot;&gt;&lt;font style=&quot;font-size: 18px;&quot;&gt;- token?: string&lt;/font&gt;&lt;/div&gt;" style="text;strokeColor=#3A5431;fillColor=#6d8764;align=left;verticalAlign=top;spacingLeft=4;spacingRight=4;overflow=hidden;rotatable=0;points=[[0,0.5],[1,0.5]];portConstraint=eastwest;whiteSpace=wrap;html=1;fontFamily=Architects Daughter;fontSource=https%3A%2F%2Ffonts.googleapis.com%2Fcss%3Ffamily%3DArchitects%2BDaughter;fontColor=#ffffff;sketch=1;curveFitting=1;jiggle=2;" parent="TZONmGZR3kwWCmB-P8gW-15" vertex="1">
          <mxGeometry y="60" width="250" height="120" as="geometry" />
        </mxCell>
        <mxCell id="TZONmGZR3kwWCmB-P8gW-17" value="" style="line;strokeWidth=1;fillColor=none;align=left;verticalAlign=middle;spacingTop=-1;spacingLeft=3;spacingRight=3;rotatable=0;labelPosition=right;points=[];portConstraint=eastwest;strokeColor=inherit;sketch=1;hachureGap=4;jiggle=2;curveFitting=1;fontFamily=Architects Daughter;fontSource=https%3A%2F%2Ffonts.googleapis.com%2Fcss%3Ffamily%3DArchitects%2BDaughter;" parent="TZONmGZR3kwWCmB-P8gW-15" vertex="1">
          <mxGeometry y="180" width="250" height="8" as="geometry" />
        </mxCell>
        <mxCell id="TZONmGZR3kwWCmB-P8gW-18" value="&lt;font style=&quot;font-size: 18px;&quot;&gt;+ loginVerify()&lt;/font&gt;&lt;div&gt;&lt;font style=&quot;font-size: 18px;&quot;&gt;+ validate_subscription()&lt;/font&gt;&lt;/div&gt;&lt;div&gt;&lt;font style=&quot;font-size: 18px;&quot;&gt;+ notify_daily_pending_task&lt;/font&gt;&lt;/div&gt;" style="text;strokeColor=#6D1F00;fillColor=#a0522d;align=left;verticalAlign=top;spacingLeft=4;spacingRight=4;overflow=hidden;rotatable=0;points=[[0,0.5],[1,0.5]];portConstraint=eastwest;whiteSpace=wrap;html=1;fontFamily=Architects Daughter;fontSource=https%3A%2F%2Ffonts.googleapis.com%2Fcss%3Ffamily%3DArchitects%2BDaughter;fontColor=#ffffff;sketch=1;curveFitting=1;jiggle=2;" parent="TZONmGZR3kwWCmB-P8gW-15" vertex="1">
          <mxGeometry y="188" width="250" height="82" as="geometry" />
        </mxCell>
        <mxCell id="YnbHNWW8bhNUtjWmadCG-27" value="" style="edgeStyle=orthogonalEdgeStyle;rounded=0;sketch=1;hachureGap=4;jiggle=2;curveFitting=1;orthogonalLoop=1;jettySize=auto;html=1;fontFamily=Architects Daughter;fontSource=https%3A%2F%2Ffonts.googleapis.com%2Fcss%3Ffamily%3DArchitects%2BDaughter;strokeWidth=3;" edge="1" parent="1" source="TZONmGZR3kwWCmB-P8gW-24" target="TZONmGZR3kwWCmB-P8gW-18">
          <mxGeometry relative="1" as="geometry" />
        </mxCell>
        <mxCell id="YnbHNWW8bhNUtjWmadCG-28" value="&lt;font style=&quot;font-size: 20px;&quot;&gt;1&lt;/font&gt;" style="edgeLabel;html=1;align=center;verticalAlign=middle;resizable=0;points=[];sketch=1;hachureGap=4;jiggle=2;curveFitting=1;fontFamily=Architects Daughter;fontSource=https%3A%2F%2Ffonts.googleapis.com%2Fcss%3Ffamily%3DArchitects%2BDaughter;" vertex="1" connectable="0" parent="YnbHNWW8bhNUtjWmadCG-27">
          <mxGeometry x="0.8186" y="1" relative="1" as="geometry">
            <mxPoint x="1" as="offset" />
          </mxGeometry>
        </mxCell>
        <mxCell id="YnbHNWW8bhNUtjWmadCG-29" value="&lt;font style=&quot;font-size: 20px;&quot;&gt;1&lt;/font&gt;" style="edgeLabel;html=1;align=center;verticalAlign=middle;resizable=0;points=[];sketch=1;hachureGap=4;jiggle=2;curveFitting=1;fontFamily=Architects Daughter;fontSource=https%3A%2F%2Ffonts.googleapis.com%2Fcss%3Ffamily%3DArchitects%2BDaughter;" vertex="1" connectable="0" parent="YnbHNWW8bhNUtjWmadCG-27">
          <mxGeometry x="-0.8174" y="-4" relative="1" as="geometry">
            <mxPoint as="offset" />
          </mxGeometry>
        </mxCell>
        <mxCell id="TZONmGZR3kwWCmB-P8gW-24" value="&lt;font style=&quot;font-size: 36px;&quot;&gt;Subscription&lt;/font&gt;" style="swimlane;fontStyle=1;align=center;verticalAlign=top;childLayout=stackLayout;horizontal=1;startSize=80;horizontalStack=0;resizeParent=1;resizeParentMax=0;resizeLast=0;collapsible=1;marginBottom=0;whiteSpace=wrap;html=1;sketch=1;hachureGap=4;jiggle=2;curveFitting=1;fontFamily=Architects Daughter;fontSource=https%3A%2F%2Ffonts.googleapis.com%2Fcss%3Ffamily%3DArchitects%2BDaughter;fillColor=#60a917;fontColor=#ffffff;strokeColor=#2D7600;" parent="1" vertex="1">
          <mxGeometry x="-250" y="1000" width="300" height="210" as="geometry" />
        </mxCell>
        <mxCell id="TZONmGZR3kwWCmB-P8gW-25" value="&lt;font style=&quot;font-size: 18px;&quot;&gt;- type: string&lt;/font&gt;&lt;div&gt;&lt;font style=&quot;font-size: 18px;&quot;&gt;- started: date&lt;/font&gt;&lt;/div&gt;&lt;div&gt;&lt;font style=&quot;font-size: 18px;&quot;&gt;- expected_end: date&lt;/font&gt;&lt;/div&gt;" style="text;strokeColor=#6D1F00;fillColor=#a0522d;align=left;verticalAlign=top;spacingLeft=4;spacingRight=4;overflow=hidden;rotatable=0;points=[[0,0.5],[1,0.5]];portConstraint=eastwest;whiteSpace=wrap;html=1;fontFamily=Architects Daughter;fontSource=https%3A%2F%2Ffonts.googleapis.com%2Fcss%3Ffamily%3DArchitects%2BDaughter;fontColor=#ffffff;sketch=1;curveFitting=1;jiggle=2;" parent="TZONmGZR3kwWCmB-P8gW-24" vertex="1">
          <mxGeometry y="80" width="300" height="80" as="geometry" />
        </mxCell>
        <mxCell id="TZONmGZR3kwWCmB-P8gW-26" value="" style="line;strokeWidth=1;fillColor=none;align=left;verticalAlign=middle;spacingTop=-1;spacingLeft=3;spacingRight=3;rotatable=0;labelPosition=right;points=[];portConstraint=eastwest;strokeColor=inherit;sketch=1;hachureGap=4;jiggle=2;curveFitting=1;fontFamily=Architects Daughter;fontSource=https%3A%2F%2Ffonts.googleapis.com%2Fcss%3Ffamily%3DArchitects%2BDaughter;" parent="TZONmGZR3kwWCmB-P8gW-24" vertex="1">
          <mxGeometry y="160" width="300" height="8" as="geometry" />
        </mxCell>
        <mxCell id="TZONmGZR3kwWCmB-P8gW-27" value="&lt;font style=&quot;font-size: 18px;&quot;&gt;+ validate_subscription()&lt;/font&gt;" style="text;strokeColor=#56517e;fillColor=#d0cee2;align=left;verticalAlign=top;spacingLeft=4;spacingRight=4;overflow=hidden;rotatable=0;points=[[0,0.5],[1,0.5]];portConstraint=eastwest;whiteSpace=wrap;html=1;fontFamily=Architects Daughter;fontSource=https%3A%2F%2Ffonts.googleapis.com%2Fcss%3Ffamily%3DArchitects%2BDaughter;sketch=1;curveFitting=1;jiggle=2;" parent="TZONmGZR3kwWCmB-P8gW-24" vertex="1">
          <mxGeometry y="168" width="300" height="42" as="geometry" />
        </mxCell>
        <mxCell id="TZONmGZR3kwWCmB-P8gW-63" value="" style="endArrow=none;html=1;rounded=0;sketch=1;hachureGap=4;jiggle=2;curveFitting=1;fontFamily=Architects Daughter;fontSource=https%3A%2F%2Ffonts.googleapis.com%2Fcss%3Ffamily%3DArchitects%2BDaughter;exitX=0.52;exitY=0;exitDx=0;exitDy=0;exitPerimeter=0;strokeWidth=3;" parent="1" source="hT-C9za3PErDwUh4CRJS-104" target="hT-C9za3PErDwUh4CRJS-131" edge="1">
          <mxGeometry width="50" height="50" relative="1" as="geometry">
            <mxPoint x="170" y="270" as="sourcePoint" />
            <mxPoint x="-20" y="-90" as="targetPoint" />
          </mxGeometry>
        </mxCell>
        <mxCell id="TZONmGZR3kwWCmB-P8gW-64" value="&lt;font style=&quot;font-size: 20px;&quot;&gt;1&lt;/font&gt;" style="edgeLabel;html=1;align=center;verticalAlign=middle;resizable=0;points=[];sketch=1;hachureGap=4;jiggle=2;curveFitting=1;fontFamily=Architects Daughter;fontSource=https%3A%2F%2Ffonts.googleapis.com%2Fcss%3Ffamily%3DArchitects%2BDaughter;" parent="TZONmGZR3kwWCmB-P8gW-63" vertex="1" connectable="0">
          <mxGeometry x="0.8994" relative="1" as="geometry">
            <mxPoint as="offset" />
          </mxGeometry>
        </mxCell>
        <mxCell id="TZONmGZR3kwWCmB-P8gW-66" value="&lt;font style=&quot;font-size: 20px;&quot;&gt;1&lt;/font&gt;" style="edgeLabel;html=1;align=center;verticalAlign=middle;resizable=0;points=[];sketch=1;hachureGap=4;jiggle=2;curveFitting=1;fontFamily=Architects Daughter;fontSource=https%3A%2F%2Ffonts.googleapis.com%2Fcss%3Ffamily%3DArchitects%2BDaughter;" parent="TZONmGZR3kwWCmB-P8gW-63" vertex="1" connectable="0">
          <mxGeometry x="-0.907" y="2" relative="1" as="geometry">
            <mxPoint as="offset" />
          </mxGeometry>
        </mxCell>
        <mxCell id="TZONmGZR3kwWCmB-P8gW-68" value="" style="endArrow=none;html=1;rounded=0;sketch=1;hachureGap=4;jiggle=2;curveFitting=1;fontFamily=Architects Daughter;fontSource=https%3A%2F%2Ffonts.googleapis.com%2Fcss%3Ffamily%3DArchitects%2BDaughter;exitX=0.563;exitY=0.004;exitDx=0;exitDy=0;exitPerimeter=0;entryX=0.421;entryY=1.139;entryDx=0;entryDy=0;entryPerimeter=0;strokeWidth=3;" parent="1" source="hT-C9za3PErDwUh4CRJS-104" target="hT-C9za3PErDwUh4CRJS-138" edge="1">
          <mxGeometry width="50" height="50" relative="1" as="geometry">
            <mxPoint x="180" y="70" as="sourcePoint" />
            <mxPoint x="230" y="20" as="targetPoint" />
          </mxGeometry>
        </mxCell>
        <mxCell id="TZONmGZR3kwWCmB-P8gW-69" value="&lt;font style=&quot;font-size: 20px;&quot;&gt;1&lt;/font&gt;" style="edgeLabel;html=1;align=center;verticalAlign=middle;resizable=0;points=[];sketch=1;hachureGap=4;jiggle=2;curveFitting=1;fontFamily=Architects Daughter;fontSource=https%3A%2F%2Ffonts.googleapis.com%2Fcss%3Ffamily%3DArchitects%2BDaughter;" parent="TZONmGZR3kwWCmB-P8gW-68" vertex="1" connectable="0">
          <mxGeometry x="0.8982" y="-3" relative="1" as="geometry">
            <mxPoint as="offset" />
          </mxGeometry>
        </mxCell>
        <mxCell id="TZONmGZR3kwWCmB-P8gW-74" value="&lt;font style=&quot;font-size: 20px;&quot;&gt;1&lt;/font&gt;" style="edgeLabel;html=1;align=center;verticalAlign=middle;resizable=0;points=[];sketch=1;hachureGap=4;jiggle=2;curveFitting=1;fontFamily=Architects Daughter;fontSource=https%3A%2F%2Ffonts.googleapis.com%2Fcss%3Ffamily%3DArchitects%2BDaughter;" parent="TZONmGZR3kwWCmB-P8gW-68" vertex="1" connectable="0">
          <mxGeometry x="-0.8026" y="1" relative="1" as="geometry">
            <mxPoint as="offset" />
          </mxGeometry>
        </mxCell>
        <mxCell id="TZONmGZR3kwWCmB-P8gW-71" value="" style="endArrow=none;html=1;rounded=0;sketch=1;hachureGap=4;jiggle=2;curveFitting=1;fontFamily=Architects Daughter;fontSource=https%3A%2F%2Ffonts.googleapis.com%2Fcss%3Ffamily%3DArchitects%2BDaughter;exitX=0.679;exitY=0.012;exitDx=0;exitDy=0;exitPerimeter=0;entryX=-0.009;entryY=0.665;entryDx=0;entryDy=0;entryPerimeter=0;strokeWidth=3;" parent="1" source="hT-C9za3PErDwUh4CRJS-104" target="TZONmGZR3kwWCmB-P8gW-9" edge="1">
          <mxGeometry width="50" height="50" relative="1" as="geometry">
            <mxPoint x="180" y="270" as="sourcePoint" />
            <mxPoint x="540" y="20" as="targetPoint" />
          </mxGeometry>
        </mxCell>
        <mxCell id="TZONmGZR3kwWCmB-P8gW-72" value="&lt;font style=&quot;font-size: 20px;&quot;&gt;1&lt;/font&gt;" style="edgeLabel;html=1;align=center;verticalAlign=middle;resizable=0;points=[];sketch=1;hachureGap=4;jiggle=2;curveFitting=1;fontFamily=Architects Daughter;fontSource=https%3A%2F%2Ffonts.googleapis.com%2Fcss%3Ffamily%3DArchitects%2BDaughter;" parent="TZONmGZR3kwWCmB-P8gW-71" vertex="1" connectable="0">
          <mxGeometry x="0.8644" y="3" relative="1" as="geometry">
            <mxPoint as="offset" />
          </mxGeometry>
        </mxCell>
        <mxCell id="TZONmGZR3kwWCmB-P8gW-73" value="&lt;font style=&quot;font-size: 20px;&quot;&gt;1&lt;/font&gt;" style="edgeLabel;html=1;align=center;verticalAlign=middle;resizable=0;points=[];sketch=1;hachureGap=4;jiggle=2;curveFitting=1;fontFamily=Architects Daughter;fontSource=https%3A%2F%2Ffonts.googleapis.com%2Fcss%3Ffamily%3DArchitects%2BDaughter;" parent="TZONmGZR3kwWCmB-P8gW-71" vertex="1" connectable="0">
          <mxGeometry x="-0.8372" y="-1" relative="1" as="geometry">
            <mxPoint as="offset" />
          </mxGeometry>
        </mxCell>
        <mxCell id="YnbHNWW8bhNUtjWmadCG-3" value="&lt;font style=&quot;font-size: 36px;&quot;&gt;COMPLETED TASK&lt;/font&gt;" style="swimlane;fontStyle=1;align=center;verticalAlign=top;childLayout=stackLayout;horizontal=1;startSize=90;horizontalStack=0;resizeParent=1;resizeParentMax=0;resizeLast=0;collapsible=1;marginBottom=0;whiteSpace=wrap;html=1;sketch=1;hachureGap=4;jiggle=2;curveFitting=1;fontFamily=Architects Daughter;fontSource=https%3A%2F%2Ffonts.googleapis.com%2Fcss%3Ffamily%3DArchitects%2BDaughter;fillColor=#a20025;strokeColor=#6F0000;fontColor=#ffffff;" vertex="1" parent="1">
          <mxGeometry x="560" y="230" width="260" height="288" as="geometry" />
        </mxCell>
        <mxCell id="YnbHNWW8bhNUtjWmadCG-4" value="&lt;span style=&quot;font-size: 18px;&quot;&gt;- _id: object_id&lt;/span&gt;&lt;div&gt;&lt;span style=&quot;font-size: 18px;&quot;&gt;- amount: number&lt;/span&gt;&lt;/div&gt;&lt;div&gt;&lt;span style=&quot;font-size: 18px;&quot;&gt;- day: number&lt;/span&gt;&lt;/div&gt;&lt;div&gt;&lt;span style=&quot;font-size: 18px;&quot;&gt;- hours: number&lt;/span&gt;&lt;/div&gt;&lt;div&gt;&lt;span style=&quot;font-size: 18px;&quot;&gt;- date: date&lt;/span&gt;&lt;/div&gt;" style="text;strokeColor=#3A5431;fillColor=#6d8764;align=left;verticalAlign=top;spacingLeft=4;spacingRight=4;overflow=hidden;rotatable=0;points=[[0,0.5],[1,0.5]];portConstraint=eastwest;whiteSpace=wrap;html=1;fontFamily=Architects Daughter;fontSource=https%3A%2F%2Ffonts.googleapis.com%2Fcss%3Ffamily%3DArchitects%2BDaughter;sketch=1;curveFitting=1;jiggle=2;fontColor=#ffffff;" vertex="1" parent="YnbHNWW8bhNUtjWmadCG-3">
          <mxGeometry y="90" width="260" height="120" as="geometry" />
        </mxCell>
        <mxCell id="YnbHNWW8bhNUtjWmadCG-66" value="&lt;div&gt;&lt;span style=&quot;font-size: 18px;&quot;&gt;+ get_completed(Task): obj&lt;/span&gt;&lt;/div&gt;&lt;div&gt;&lt;span style=&quot;font-size: 18px;&quot;&gt;+ update_amount(): number&lt;/span&gt;&lt;/div&gt;&lt;span style=&quot;font-size: 18px;&quot;&gt;+ save()&lt;/span&gt;" style="text;strokeColor=#36393d;fillColor=#eeeeee;align=left;verticalAlign=top;spacingLeft=4;spacingRight=4;overflow=hidden;rotatable=0;points=[[0,0.5],[1,0.5]];portConstraint=eastwest;whiteSpace=wrap;html=1;fontFamily=Architects Daughter;fontSource=https%3A%2F%2Ffonts.googleapis.com%2Fcss%3Ffamily%3DArchitects%2BDaughter;sketch=1;curveFitting=1;jiggle=2;" vertex="1" parent="YnbHNWW8bhNUtjWmadCG-3">
          <mxGeometry y="210" width="260" height="70" as="geometry" />
        </mxCell>
        <mxCell id="YnbHNWW8bhNUtjWmadCG-5" value="" style="line;strokeWidth=1;fillColor=none;align=left;verticalAlign=middle;spacingTop=-1;spacingLeft=3;spacingRight=3;rotatable=0;labelPosition=right;points=[];portConstraint=eastwest;strokeColor=inherit;sketch=1;hachureGap=4;jiggle=2;curveFitting=1;fontFamily=Architects Daughter;fontSource=https%3A%2F%2Ffonts.googleapis.com%2Fcss%3Ffamily%3DArchitects%2BDaughter;" vertex="1" parent="YnbHNWW8bhNUtjWmadCG-3">
          <mxGeometry y="280" width="260" height="8" as="geometry" />
        </mxCell>
        <mxCell id="YnbHNWW8bhNUtjWmadCG-8" value="" style="endArrow=diamondThin;endFill=1;endSize=24;html=1;rounded=0;sketch=1;hachureGap=4;jiggle=2;curveFitting=1;fontFamily=Architects Daughter;fontSource=https%3A%2F%2Ffonts.googleapis.com%2Fcss%3Ffamily%3DArchitects%2BDaughter;entryX=1.012;entryY=0.94;entryDx=0;entryDy=0;entryPerimeter=0;exitX=0.009;exitY=0.446;exitDx=0;exitDy=0;exitPerimeter=0;strokeWidth=3;" edge="1" parent="1" source="YnbHNWW8bhNUtjWmadCG-3" target="hT-C9za3PErDwUh4CRJS-105">
          <mxGeometry width="160" relative="1" as="geometry">
            <mxPoint x="529.9999999999995" y="408.2747252747249" as="sourcePoint" />
            <mxPoint x="290" y="403" as="targetPoint" />
          </mxGeometry>
        </mxCell>
        <mxCell id="YnbHNWW8bhNUtjWmadCG-15" value="&lt;font style=&quot;font-size: 20px;&quot;&gt;1&lt;/font&gt;" style="edgeLabel;html=1;align=center;verticalAlign=middle;resizable=0;points=[];sketch=1;hachureGap=4;jiggle=2;curveFitting=1;fontFamily=Architects Daughter;fontSource=https%3A%2F%2Ffonts.googleapis.com%2Fcss%3Ffamily%3DArchitects%2BDaughter;" vertex="1" connectable="0" parent="YnbHNWW8bhNUtjWmadCG-8">
          <mxGeometry x="0.651" y="8" relative="1" as="geometry">
            <mxPoint x="-1" as="offset" />
          </mxGeometry>
        </mxCell>
        <mxCell id="YnbHNWW8bhNUtjWmadCG-16" value="&lt;font style=&quot;font-size: 20px;&quot;&gt;1&lt;/font&gt;" style="edgeLabel;html=1;align=center;verticalAlign=middle;resizable=0;points=[];sketch=1;hachureGap=4;jiggle=2;curveFitting=1;fontFamily=Architects Daughter;fontSource=https%3A%2F%2Ffonts.googleapis.com%2Fcss%3Ffamily%3DArchitects%2BDaughter;" vertex="1" connectable="0" parent="YnbHNWW8bhNUtjWmadCG-8">
          <mxGeometry x="-0.7591" y="2" relative="1" as="geometry">
            <mxPoint as="offset" />
          </mxGeometry>
        </mxCell>
        <mxCell id="YnbHNWW8bhNUtjWmadCG-9" value="&lt;font style=&quot;font-size: 36px;&quot;&gt;INCOMPLETE TASK&lt;/font&gt;" style="swimlane;fontStyle=1;align=center;verticalAlign=top;childLayout=stackLayout;horizontal=1;startSize=90;horizontalStack=0;resizeParent=1;resizeParentMax=0;resizeLast=0;collapsible=1;marginBottom=0;whiteSpace=wrap;html=1;sketch=1;hachureGap=4;jiggle=2;curveFitting=1;fontFamily=Architects Daughter;fontSource=https%3A%2F%2Ffonts.googleapis.com%2Fcss%3Ffamily%3DArchitects%2BDaughter;fillColor=#a20025;strokeColor=#6F0000;fontColor=#ffffff;" vertex="1" parent="1">
          <mxGeometry x="1030" y="230" width="250" height="278" as="geometry" />
        </mxCell>
        <mxCell id="YnbHNWW8bhNUtjWmadCG-10" value="&lt;span style=&quot;font-size: 18px;&quot;&gt;- _id: object_id&lt;/span&gt;&lt;div&gt;&lt;span style=&quot;font-size: 18px;&quot;&gt;- amount: number&lt;/span&gt;&lt;/div&gt;&lt;div&gt;&lt;span style=&quot;font-size: 18px;&quot;&gt;- day: number&lt;/span&gt;&lt;/div&gt;&lt;div&gt;&lt;span style=&quot;font-size: 18px;&quot;&gt;- date: date&lt;/span&gt;&lt;/div&gt;" style="text;strokeColor=#3A5431;fillColor=#6d8764;align=left;verticalAlign=top;spacingLeft=4;spacingRight=4;overflow=hidden;rotatable=0;points=[[0,0.5],[1,0.5]];portConstraint=eastwest;whiteSpace=wrap;html=1;fontFamily=Architects Daughter;fontSource=https%3A%2F%2Ffonts.googleapis.com%2Fcss%3Ffamily%3DArchitects%2BDaughter;sketch=1;curveFitting=1;jiggle=2;fontColor=#ffffff;" vertex="1" parent="YnbHNWW8bhNUtjWmadCG-9">
          <mxGeometry y="90" width="250" height="100" as="geometry" />
        </mxCell>
        <mxCell id="YnbHNWW8bhNUtjWmadCG-67" value="&lt;div&gt;&lt;span style=&quot;font-size: 18px;&quot;&gt;+ get_incomplete(Task): obj&lt;/span&gt;&lt;/div&gt;&lt;div&gt;&lt;span style=&quot;font-size: 18px;&quot;&gt;+ update_amount(): number&lt;/span&gt;&lt;/div&gt;&lt;span style=&quot;font-size: 18px;&quot;&gt;+ save()&lt;/span&gt;" style="text;strokeColor=#36393d;fillColor=#eeeeee;align=left;verticalAlign=top;spacingLeft=4;spacingRight=4;overflow=hidden;rotatable=0;points=[[0,0.5],[1,0.5]];portConstraint=eastwest;whiteSpace=wrap;html=1;fontFamily=Architects Daughter;fontSource=https%3A%2F%2Ffonts.googleapis.com%2Fcss%3Ffamily%3DArchitects%2BDaughter;sketch=1;curveFitting=1;jiggle=2;" vertex="1" parent="YnbHNWW8bhNUtjWmadCG-9">
          <mxGeometry y="190" width="250" height="80" as="geometry" />
        </mxCell>
        <mxCell id="YnbHNWW8bhNUtjWmadCG-11" value="" style="line;strokeWidth=1;fillColor=none;align=left;verticalAlign=middle;spacingTop=-1;spacingLeft=3;spacingRight=3;rotatable=0;labelPosition=right;points=[];portConstraint=eastwest;strokeColor=inherit;sketch=1;hachureGap=4;jiggle=2;curveFitting=1;fontFamily=Architects Daughter;fontSource=https%3A%2F%2Ffonts.googleapis.com%2Fcss%3Ffamily%3DArchitects%2BDaughter;" vertex="1" parent="YnbHNWW8bhNUtjWmadCG-9">
          <mxGeometry y="270" width="250" height="8" as="geometry" />
        </mxCell>
        <mxCell id="YnbHNWW8bhNUtjWmadCG-13" value="" style="endArrow=diamondThin;endFill=1;endSize=24;html=1;rounded=0;sketch=1;hachureGap=4;jiggle=2;curveFitting=1;fontFamily=Architects Daughter;fontSource=https%3A%2F%2Ffonts.googleapis.com%2Fcss%3Ffamily%3DArchitects%2BDaughter;entryX=1;entryY=0.5;entryDx=0;entryDy=0;exitX=0;exitY=0.5;exitDx=0;exitDy=0;strokeWidth=3;" edge="1" parent="1" source="YnbHNWW8bhNUtjWmadCG-9" target="YnbHNWW8bhNUtjWmadCG-3">
          <mxGeometry width="160" relative="1" as="geometry">
            <mxPoint x="989.9999999999995" y="395.2747252747249" as="sourcePoint" />
            <mxPoint x="750" y="390" as="targetPoint" />
          </mxGeometry>
        </mxCell>
        <mxCell id="YnbHNWW8bhNUtjWmadCG-17" value="&lt;font style=&quot;font-size: 20px;&quot;&gt;1&lt;/font&gt;" style="edgeLabel;html=1;align=center;verticalAlign=middle;resizable=0;points=[];sketch=1;hachureGap=4;jiggle=2;curveFitting=1;fontFamily=Architects Daughter;fontSource=https%3A%2F%2Ffonts.googleapis.com%2Fcss%3Ffamily%3DArchitects%2BDaughter;" vertex="1" connectable="0" parent="YnbHNWW8bhNUtjWmadCG-13">
          <mxGeometry x="0.3961" y="2" relative="1" as="geometry">
            <mxPoint as="offset" />
          </mxGeometry>
        </mxCell>
        <mxCell id="YnbHNWW8bhNUtjWmadCG-18" value="&lt;font style=&quot;font-size: 20px;&quot;&gt;1&lt;/font&gt;" style="edgeLabel;html=1;align=center;verticalAlign=middle;resizable=0;points=[];sketch=1;hachureGap=4;jiggle=2;curveFitting=1;fontFamily=Architects Daughter;fontSource=https%3A%2F%2Ffonts.googleapis.com%2Fcss%3Ffamily%3DArchitects%2BDaughter;" vertex="1" connectable="0" parent="YnbHNWW8bhNUtjWmadCG-13">
          <mxGeometry x="-0.7175" y="-1" relative="1" as="geometry">
            <mxPoint as="offset" />
          </mxGeometry>
        </mxCell>
        <mxCell id="YnbHNWW8bhNUtjWmadCG-26" value="" style="edgeStyle=orthogonalEdgeStyle;rounded=0;sketch=1;hachureGap=4;jiggle=2;curveFitting=1;orthogonalLoop=1;jettySize=auto;html=1;fontFamily=Architects Daughter;fontSource=https%3A%2F%2Ffonts.googleapis.com%2Fcss%3Ffamily%3DArchitects%2BDaughter;strokeWidth=3;" edge="1" parent="1" source="YnbHNWW8bhNUtjWmadCG-19" target="TZONmGZR3kwWCmB-P8gW-25">
          <mxGeometry relative="1" as="geometry" />
        </mxCell>
        <mxCell id="YnbHNWW8bhNUtjWmadCG-54" value="&lt;font style=&quot;font-size: 20px;&quot;&gt;1&lt;/font&gt;" style="edgeLabel;html=1;align=center;verticalAlign=middle;resizable=0;points=[];sketch=1;hachureGap=4;jiggle=2;curveFitting=1;fontFamily=Architects Daughter;fontSource=https%3A%2F%2Ffonts.googleapis.com%2Fcss%3Ffamily%3DArchitects%2BDaughter;" vertex="1" connectable="0" parent="YnbHNWW8bhNUtjWmadCG-26">
          <mxGeometry x="0.8686" y="2" relative="1" as="geometry">
            <mxPoint x="-1" as="offset" />
          </mxGeometry>
        </mxCell>
        <mxCell id="YnbHNWW8bhNUtjWmadCG-55" value="&lt;font style=&quot;font-size: 20px;&quot;&gt;1&lt;/font&gt;" style="edgeLabel;html=1;align=center;verticalAlign=middle;resizable=0;points=[];sketch=1;hachureGap=4;jiggle=2;curveFitting=1;fontFamily=Architects Daughter;fontSource=https%3A%2F%2Ffonts.googleapis.com%2Fcss%3Ffamily%3DArchitects%2BDaughter;" vertex="1" connectable="0" parent="YnbHNWW8bhNUtjWmadCG-26">
          <mxGeometry x="-0.9203" y="-2" relative="1" as="geometry">
            <mxPoint y="1" as="offset" />
          </mxGeometry>
        </mxCell>
        <mxCell id="YnbHNWW8bhNUtjWmadCG-19" value="&lt;font style=&quot;font-size: 20px;&quot;&gt;PAYMENT&lt;/font&gt;" style="swimlane;fontStyle=1;align=center;verticalAlign=top;childLayout=stackLayout;horizontal=1;startSize=40;horizontalStack=0;resizeParent=1;resizeParentMax=0;resizeLast=0;collapsible=1;marginBottom=0;whiteSpace=wrap;html=1;sketch=1;hachureGap=4;jiggle=2;curveFitting=1;fontFamily=Architects Daughter;fontSource=https%3A%2F%2Ffonts.googleapis.com%2Fcss%3Ffamily%3DArchitects%2BDaughter;fillColor=#a0522d;fontColor=#ffffff;strokeColor=#6D1F00;" vertex="1" parent="1">
          <mxGeometry x="80" y="630" width="200" height="218" as="geometry" />
        </mxCell>
        <mxCell id="YnbHNWW8bhNUtjWmadCG-20" value="&lt;font style=&quot;font-size: 18px;&quot;&gt;- _id: object_id&lt;/font&gt;&lt;div style=&quot;font-size: 18px;&quot;&gt;&lt;font style=&quot;font-size: 18px;&quot;&gt;- payment_date: date&lt;/font&gt;&lt;/div&gt;&lt;div style=&quot;font-size: 18px;&quot;&gt;&lt;font style=&quot;font-size: 18px;&quot;&gt;- status: completed&lt;/font&gt;&lt;/div&gt;&lt;div style=&quot;font-size: 18px;&quot;&gt;&lt;font style=&quot;font-size: 18px;&quot;&gt;- amount_paid: number&lt;/font&gt;&lt;/div&gt;&lt;div style=&quot;font-size: 18px;&quot;&gt;&lt;font style=&quot;font-size: 18px;&quot;&gt;- ref: txid()&amp;nbsp;&lt;/font&gt;&lt;/div&gt;" style="text;strokeColor=#2D7600;fillColor=#60a917;align=left;verticalAlign=top;spacingLeft=4;spacingRight=4;overflow=hidden;rotatable=0;points=[[0,0.5],[1,0.5]];portConstraint=eastwest;whiteSpace=wrap;html=1;fontFamily=Architects Daughter;fontSource=https%3A%2F%2Ffonts.googleapis.com%2Fcss%3Ffamily%3DArchitects%2BDaughter;sketch=1;curveFitting=1;jiggle=2;fontColor=#ffffff;" vertex="1" parent="YnbHNWW8bhNUtjWmadCG-19">
          <mxGeometry y="40" width="200" height="120" as="geometry" />
        </mxCell>
        <mxCell id="YnbHNWW8bhNUtjWmadCG-68" value="&lt;font style=&quot;font-size: 18px;&quot;&gt;+ save()&lt;/font&gt;" style="text;strokeColor=#314354;fillColor=#647687;align=left;verticalAlign=top;spacingLeft=4;spacingRight=4;overflow=hidden;rotatable=0;points=[[0,0.5],[1,0.5]];portConstraint=eastwest;whiteSpace=wrap;html=1;fontFamily=Architects Daughter;fontSource=https%3A%2F%2Ffonts.googleapis.com%2Fcss%3Ffamily%3DArchitects%2BDaughter;sketch=1;curveFitting=1;jiggle=2;fontColor=#ffffff;" vertex="1" parent="YnbHNWW8bhNUtjWmadCG-19">
          <mxGeometry y="160" width="200" height="50" as="geometry" />
        </mxCell>
        <mxCell id="YnbHNWW8bhNUtjWmadCG-21" value="" style="line;strokeWidth=1;fillColor=none;align=left;verticalAlign=middle;spacingTop=-1;spacingLeft=3;spacingRight=3;rotatable=0;labelPosition=right;points=[];portConstraint=eastwest;strokeColor=inherit;sketch=1;hachureGap=4;jiggle=2;curveFitting=1;fontFamily=Architects Daughter;fontSource=https%3A%2F%2Ffonts.googleapis.com%2Fcss%3Ffamily%3DArchitects%2BDaughter;" vertex="1" parent="YnbHNWW8bhNUtjWmadCG-19">
          <mxGeometry y="210" width="200" height="8" as="geometry" />
        </mxCell>
        <mxCell id="YnbHNWW8bhNUtjWmadCG-23" value="" style="endArrow=none;html=1;rounded=0;sketch=1;hachureGap=4;jiggle=2;curveFitting=1;fontFamily=Architects Daughter;fontSource=https%3A%2F%2Ffonts.googleapis.com%2Fcss%3Ffamily%3DArchitects%2BDaughter;entryX=0;entryY=0.25;entryDx=0;entryDy=0;exitX=1.001;exitY=0.134;exitDx=0;exitDy=0;exitPerimeter=0;strokeWidth=3;" edge="1" parent="1" source="TZONmGZR3kwWCmB-P8gW-18" target="YnbHNWW8bhNUtjWmadCG-19">
          <mxGeometry width="50" height="50" relative="1" as="geometry">
            <mxPoint x="-100" y="740" as="sourcePoint" />
            <mxPoint x="-70" y="610" as="targetPoint" />
          </mxGeometry>
        </mxCell>
        <mxCell id="YnbHNWW8bhNUtjWmadCG-39" value="&lt;font style=&quot;font-size: 20px;&quot;&gt;TRANSACTION&lt;/font&gt;" style="swimlane;fontStyle=1;align=center;verticalAlign=top;childLayout=stackLayout;horizontal=1;startSize=40;horizontalStack=0;resizeParent=1;resizeParentMax=0;resizeLast=0;collapsible=1;marginBottom=0;whiteSpace=wrap;html=1;sketch=1;hachureGap=4;jiggle=2;curveFitting=1;fontFamily=Architects Daughter;fontSource=https%3A%2F%2Ffonts.googleapis.com%2Fcss%3Ffamily%3DArchitects%2BDaughter;fillColor=#a0522d;fontColor=#ffffff;strokeColor=#6D1F00;" vertex="1" parent="1">
          <mxGeometry x="430" y="630" width="200" height="228" as="geometry" />
        </mxCell>
        <mxCell id="YnbHNWW8bhNUtjWmadCG-40" value="&lt;font style=&quot;font-size: 18px;&quot;&gt;- _id: object_id&lt;/font&gt;&lt;div style=&quot;font-size: 18px;&quot;&gt;&lt;font style=&quot;font-size: 18px;&quot;&gt;- payment_date: date&lt;/font&gt;&lt;/div&gt;&lt;div style=&quot;font-size: 18px;&quot;&gt;&lt;font style=&quot;font-size: 18px;&quot;&gt;- status: completed&lt;/font&gt;&lt;/div&gt;&lt;div style=&quot;font-size: 18px;&quot;&gt;&lt;font style=&quot;font-size: 18px;&quot;&gt;- amount_paid: number&lt;/font&gt;&lt;/div&gt;&lt;div style=&quot;font-size: 18px;&quot;&gt;&lt;font style=&quot;font-size: 18px;&quot;&gt;+ txid: number&lt;/font&gt;&lt;/div&gt;" style="text;strokeColor=#2D7600;fillColor=#60a917;align=left;verticalAlign=top;spacingLeft=4;spacingRight=4;overflow=hidden;rotatable=0;points=[[0,0.5],[1,0.5]];portConstraint=eastwest;whiteSpace=wrap;html=1;fontFamily=Architects Daughter;fontSource=https%3A%2F%2Ffonts.googleapis.com%2Fcss%3Ffamily%3DArchitects%2BDaughter;sketch=1;curveFitting=1;jiggle=2;fontColor=#ffffff;" vertex="1" parent="YnbHNWW8bhNUtjWmadCG-39">
          <mxGeometry y="40" width="200" height="120" as="geometry" />
        </mxCell>
        <mxCell id="YnbHNWW8bhNUtjWmadCG-56" value="&lt;font style=&quot;font-size: 18px;&quot;&gt;+ verify_transaction()&lt;/font&gt;&lt;div&gt;&lt;font style=&quot;font-size: 18px;&quot;&gt;+ save()&lt;/font&gt;&lt;/div&gt;" style="text;strokeColor=#314354;fillColor=#647687;align=left;verticalAlign=top;spacingLeft=4;spacingRight=4;overflow=hidden;rotatable=0;points=[[0,0.5],[1,0.5]];portConstraint=eastwest;whiteSpace=wrap;html=1;fontFamily=Architects Daughter;fontSource=https%3A%2F%2Ffonts.googleapis.com%2Fcss%3Ffamily%3DArchitects%2BDaughter;sketch=1;curveFitting=1;jiggle=2;fontColor=#ffffff;" vertex="1" parent="YnbHNWW8bhNUtjWmadCG-39">
          <mxGeometry y="160" width="200" height="60" as="geometry" />
        </mxCell>
        <mxCell id="YnbHNWW8bhNUtjWmadCG-41" value="" style="line;strokeWidth=1;fillColor=none;align=left;verticalAlign=middle;spacingTop=-1;spacingLeft=3;spacingRight=3;rotatable=0;labelPosition=right;points=[];portConstraint=eastwest;strokeColor=inherit;sketch=1;hachureGap=4;jiggle=2;curveFitting=1;fontFamily=Architects Daughter;fontSource=https%3A%2F%2Ffonts.googleapis.com%2Fcss%3Ffamily%3DArchitects%2BDaughter;" vertex="1" parent="YnbHNWW8bhNUtjWmadCG-39">
          <mxGeometry y="220" width="200" height="8" as="geometry" />
        </mxCell>
        <mxCell id="YnbHNWW8bhNUtjWmadCG-43" value="" style="endArrow=none;html=1;rounded=0;sketch=1;hachureGap=4;jiggle=2;curveFitting=1;fontFamily=Architects Daughter;fontSource=https%3A%2F%2Ffonts.googleapis.com%2Fcss%3Ffamily%3DArchitects%2BDaughter;exitX=1.01;exitY=0.315;exitDx=0;exitDy=0;exitPerimeter=0;entryX=0.004;entryY=0.315;entryDx=0;entryDy=0;entryPerimeter=0;strokeWidth=3;startArrow=blockThin;startFill=0;" edge="1" parent="1" source="YnbHNWW8bhNUtjWmadCG-20" target="YnbHNWW8bhNUtjWmadCG-40">
          <mxGeometry width="50" height="50" relative="1" as="geometry">
            <mxPoint x="340" y="750" as="sourcePoint" />
            <mxPoint x="390" y="700" as="targetPoint" />
          </mxGeometry>
        </mxCell>
        <mxCell id="YnbHNWW8bhNUtjWmadCG-44" value="&lt;font style=&quot;font-size: 20px;&quot;&gt;1&lt;/font&gt;" style="edgeLabel;html=1;align=center;verticalAlign=middle;resizable=0;points=[];sketch=1;hachureGap=4;jiggle=2;curveFitting=1;fontFamily=Architects Daughter;fontSource=https%3A%2F%2Ffonts.googleapis.com%2Fcss%3Ffamily%3DArchitects%2BDaughter;" vertex="1" connectable="0" parent="YnbHNWW8bhNUtjWmadCG-43">
          <mxGeometry x="-0.8059" relative="1" as="geometry">
            <mxPoint as="offset" />
          </mxGeometry>
        </mxCell>
        <mxCell id="YnbHNWW8bhNUtjWmadCG-45" value="&lt;font style=&quot;font-size: 20px;&quot;&gt;1&lt;/font&gt;" style="edgeLabel;html=1;align=center;verticalAlign=middle;resizable=0;points=[];sketch=1;hachureGap=4;jiggle=2;curveFitting=1;fontFamily=Architects Daughter;fontSource=https%3A%2F%2Ffonts.googleapis.com%2Fcss%3Ffamily%3DArchitects%2BDaughter;" vertex="1" connectable="0" parent="YnbHNWW8bhNUtjWmadCG-43">
          <mxGeometry x="0.6278" y="-2" relative="1" as="geometry">
            <mxPoint as="offset" />
          </mxGeometry>
        </mxCell>
        <mxCell id="YnbHNWW8bhNUtjWmadCG-46" value="" style="edgeStyle=orthogonalEdgeStyle;rounded=0;sketch=1;hachureGap=4;jiggle=2;curveFitting=1;orthogonalLoop=1;jettySize=auto;html=1;fontFamily=Architects Daughter;fontSource=https%3A%2F%2Ffonts.googleapis.com%2Fcss%3Ffamily%3DArchitects%2BDaughter;strokeWidth=3;" edge="1" parent="1" source="hT-C9za3PErDwUh4CRJS-59" target="TZONmGZR3kwWCmB-P8gW-16">
          <mxGeometry relative="1" as="geometry" />
        </mxCell>
        <mxCell id="YnbHNWW8bhNUtjWmadCG-48" value="&lt;span style=&quot;font-size: 20px;&quot;&gt;1&lt;/span&gt;" style="edgeLabel;html=1;align=center;verticalAlign=middle;resizable=0;points=[];sketch=1;hachureGap=4;jiggle=2;curveFitting=1;fontFamily=Architects Daughter;fontSource=https%3A%2F%2Ffonts.googleapis.com%2Fcss%3Ffamily%3DArchitects%2BDaughter;" vertex="1" connectable="0" parent="YnbHNWW8bhNUtjWmadCG-46">
          <mxGeometry x="-0.8948" y="3" relative="1" as="geometry">
            <mxPoint y="1" as="offset" />
          </mxGeometry>
        </mxCell>
        <mxCell id="YnbHNWW8bhNUtjWmadCG-49" value="&lt;font style=&quot;font-size: 20px;&quot;&gt;1&lt;/font&gt;" style="edgeLabel;html=1;align=center;verticalAlign=middle;resizable=0;points=[];sketch=1;hachureGap=4;jiggle=2;curveFitting=1;fontFamily=Architects Daughter;fontSource=https%3A%2F%2Ffonts.googleapis.com%2Fcss%3Ffamily%3DArchitects%2BDaughter;" vertex="1" connectable="0" parent="YnbHNWW8bhNUtjWmadCG-46">
          <mxGeometry x="0.8948" y="1" relative="1" as="geometry">
            <mxPoint x="1" y="1" as="offset" />
          </mxGeometry>
        </mxCell>
        <mxCell id="TZONmGZR3kwWCmB-P8gW-12" value="" style="endArrow=diamondThin;endFill=1;endSize=24;html=1;rounded=0;sketch=1;hachureGap=4;jiggle=2;curveFitting=1;fontFamily=Architects Daughter;fontSource=https%3A%2F%2Ffonts.googleapis.com%2Fcss%3Ffamily%3DArchitects%2BDaughter;entryX=1.014;entryY=0.631;entryDx=0;entryDy=0;entryPerimeter=0;exitX=-0.009;exitY=0.435;exitDx=0;exitDy=0;exitPerimeter=0;strokeColor=#FFFFFF;strokeWidth=3;" parent="1" source="TZONmGZR3kwWCmB-P8gW-9" target="hT-C9za3PErDwUh4CRJS-137" edge="1">
          <mxGeometry width="160" relative="1" as="geometry">
            <mxPoint x="827.24" y="-189.9999999999999" as="sourcePoint" />
            <mxPoint x="729.9999999999998" y="-176.22000000000014" as="targetPoint" />
          </mxGeometry>
        </mxCell>
        <mxCell id="TZONmGZR3kwWCmB-P8gW-3" value="" style="endArrow=diamondThin;endFill=1;endSize=24;html=1;rounded=0;sketch=1;hachureGap=4;jiggle=2;curveFitting=1;fontFamily=Architects Daughter;fontSource=https%3A%2F%2Ffonts.googleapis.com%2Fcss%3Ffamily%3DArchitects%2BDaughter;exitX=-0.004;exitY=0.417;exitDx=0;exitDy=0;strokeColor=#FFFFFF;exitPerimeter=0;entryX=1.008;entryY=1.017;entryDx=0;entryDy=0;entryPerimeter=0;strokeWidth=3;" parent="1" source="hT-C9za3PErDwUh4CRJS-137" edge="1" target="hT-C9za3PErDwUh4CRJS-130">
          <mxGeometry width="160" relative="1" as="geometry">
            <mxPoint x="503.22000000000025" y="-195.53999999999996" as="sourcePoint" />
            <mxPoint x="80" y="-210" as="targetPoint" />
          </mxGeometry>
        </mxCell>
        <mxCell id="YnbHNWW8bhNUtjWmadCG-69" value="&lt;font style=&quot;font-size: 36px;&quot;&gt;CUSTOM CATEGORIES&lt;/font&gt;" style="swimlane;fontStyle=1;align=center;verticalAlign=top;childLayout=stackLayout;horizontal=1;startSize=86;horizontalStack=0;resizeParent=1;resizeParentMax=0;resizeLast=0;collapsible=1;marginBottom=0;whiteSpace=wrap;html=1;sketch=1;hachureGap=4;jiggle=2;curveFitting=1;fontFamily=Architects Daughter;fontSource=https%3A%2F%2Ffonts.googleapis.com%2Fcss%3Ffamily%3DArchitects%2BDaughter;fillColor=#e51400;fontColor=#ffffff;strokeColor=#B20000;" vertex="1" parent="1">
          <mxGeometry x="-860" y="40" width="250" height="180" as="geometry" />
        </mxCell>
        <mxCell id="YnbHNWW8bhNUtjWmadCG-70" value="&lt;font style=&quot;font-size: 18px;&quot;&gt;- name: string&lt;/font&gt;&lt;div style=&quot;font-size: 18px;&quot;&gt;&lt;font style=&quot;font-size: 18px;&quot;&gt;- icon: string&lt;/font&gt;&lt;/div&gt;" style="text;strokeColor=#3A5431;fillColor=#6d8764;align=left;verticalAlign=top;spacingLeft=4;spacingRight=4;overflow=hidden;rotatable=0;points=[[0,0.5],[1,0.5]];portConstraint=eastwest;whiteSpace=wrap;html=1;fontFamily=Architects Daughter;fontSource=https%3A%2F%2Ffonts.googleapis.com%2Fcss%3Ffamily%3DArchitects%2BDaughter;fontColor=#ffffff;sketch=1;curveFitting=1;jiggle=2;" vertex="1" parent="YnbHNWW8bhNUtjWmadCG-69">
          <mxGeometry y="86" width="250" height="54" as="geometry" />
        </mxCell>
        <mxCell id="YnbHNWW8bhNUtjWmadCG-71" value="" style="line;strokeWidth=1;fillColor=none;align=left;verticalAlign=middle;spacingTop=-1;spacingLeft=3;spacingRight=3;rotatable=0;labelPosition=right;points=[];portConstraint=eastwest;strokeColor=inherit;sketch=1;hachureGap=4;jiggle=2;curveFitting=1;fontFamily=Architects Daughter;fontSource=https%3A%2F%2Ffonts.googleapis.com%2Fcss%3Ffamily%3DArchitects%2BDaughter;" vertex="1" parent="YnbHNWW8bhNUtjWmadCG-69">
          <mxGeometry y="140" width="250" height="8" as="geometry" />
        </mxCell>
        <mxCell id="YnbHNWW8bhNUtjWmadCG-72" value="&lt;font style=&quot;font-size: 18px;&quot;&gt;+ save()&lt;/font&gt;" style="text;strokeColor=#314354;fillColor=#647687;align=left;verticalAlign=top;spacingLeft=4;spacingRight=4;overflow=hidden;rotatable=0;points=[[0,0.5],[1,0.5]];portConstraint=eastwest;whiteSpace=wrap;html=1;fontFamily=Architects Daughter;fontSource=https%3A%2F%2Ffonts.googleapis.com%2Fcss%3Ffamily%3DArchitects%2BDaughter;fontColor=#ffffff;sketch=1;curveFitting=1;jiggle=2;" vertex="1" parent="YnbHNWW8bhNUtjWmadCG-69">
          <mxGeometry y="148" width="250" height="32" as="geometry" />
        </mxCell>
      </root>
    </mxGraphModel>
  </diagram>
</mxfile>
